{
    "asset" : {
        "generator" : "Khronos glTF Blender I/O v1.5.17",
        "version" : "2.0"
    },
    "scene" : 0,
    "scenes" : [
        {
            "name" : "Scene",
            "nodes" : [
                4
            ]
        }
    ],
    "nodes" : [
        {
            "mesh" : 0,
            "name" : "Cube.001"
        },
        {
            "mesh" : 1,
            "name" : "Cube.002"
        },
        {
            "mesh" : 2,
            "name" : "Cube.003",
            "scale" : [
                0.09360815584659576,
                0.09360815584659576,
                0.09360815584659576
            ],
            "translation" : [
                0.03552716225385666,
                -0.22136148810386658,
                0
            ]
        },
        {
            "mesh" : 3,
            "name" : "Cylinder"
        },
        {
            "children" : [
                0,
                1,
                2,
                3
            ],
            "mesh" : 4,
            "name" : "Cube"
        }
    ],
    "materials" : [
        {
            "doubleSided" : true,
            "name" : "BodyExcav",
            "pbrMetallicRoughness" : {
                "baseColorFactor" : [
                    0.8000000715255737,
                    0.7263665795326233,
                    0,
                    1
                ]
            }
        },
        {
            "doubleSided" : true,
            "name" : "PartsExcav",
            "pbrMetallicRoughness" : {
                "baseColorFactor" : [
                    0.010370477102696896,
                    0.010370477102696896,
                    0.010370477102696896,
                    1
                ],
                "metallicFactor" : 0
            }
        },
        {
            "doubleSided" : true,
            "name" : "Steel",
            "pbrMetallicRoughness" : {
                "baseColorFactor" : [
                    0.06372199207544327,
                    0.06372199207544327,
                    0.06372199207544327,
                    1
                ],
                "roughnessFactor" : 0.5
            }
        }
    ],
    "meshes" : [
        {
            "name" : "Cube.001",
            "primitives" : [
                {
                    "attributes" : {
                        "POSITION" : 0,
                        "NORMAL" : 1,
                        "TEXCOORD_0" : 2
                    },
                    "indices" : 3,
                    "material" : 0
                },
                {
                    "attributes" : {
                        "POSITION" : 4,
                        "NORMAL" : 5,
                        "TEXCOORD_0" : 6
                    },
                    "indices" : 7,
                    "material" : 1
                }
            ]
        },
        {
            "name" : "Cube.002",
            "primitives" : [
                {
                    "attributes" : {
                        "POSITION" : 8,
                        "NORMAL" : 9,
                        "TEXCOORD_0" : 10
                    },
                    "indices" : 11,
                    "material" : 2
                }
            ]
        },
        {
            "name" : "Cube.004",
            "primitives" : [
                {
                    "attributes" : {
                        "POSITION" : 12,
                        "NORMAL" : 13,
                        "TEXCOORD_0" : 14
                    },
                    "indices" : 15,
                    "material" : 2
                }
            ]
        },
        {
            "name" : "Cylinder.002",
            "primitives" : [
                {
                    "attributes" : {
                        "POSITION" : 16,
                        "NORMAL" : 17,
                        "TEXCOORD_0" : 18
                    },
                    "indices" : 19,
                    "material" : 2
                }
            ]
        },
        {
            "name" : "Cube",
            "primitives" : [
                {
                    "attributes" : {
                        "POSITION" : 20,
                        "NORMAL" : 21,
                        "TEXCOORD_0" : 22
                    },
                    "indices" : 23,
                    "material" : 1
                },
                {
                    "attributes" : {
                        "POSITION" : 24,
                        "NORMAL" : 25,
                        "TEXCOORD_0" : 26
                    },
                    "indices" : 27,
                    "material" : 0
                }
            ]
        }
    ],
    "accessors" : [
        {
            "bufferView" : 0,
            "componentType" : 5126,
            "count" : 94,
            "max" : [
                0.04838896170258522,
                2.042224645614624,
                -0.32596251368522644
            ],
            "min" : [
                -0.04838896170258522,
                1.550807237625122,
                -1.4484789371490479
            ],
            "type" : "VEC3"
        },
        {
            "bufferView" : 1,
            "componentType" : 5126,
            "count" : 94,
            "type" : "VEC3"
        },
        {
            "bufferView" : 2,
            "componentType" : 5126,
            "count" : 94,
            "type" : "VEC2"
        },
        {
            "bufferView" : 3,
            "componentType" : 5123,
            "count" : 144,
            "type" : "SCALAR"
        },
        {
            "bufferView" : 4,
            "componentType" : 5126,
            "count" : 84,
            "max" : [
                0.021728329360485077,
                2.0290720462799072,
                -0.7490235567092896
            ],
            "min" : [
                -0.021728329360485077,
                1.676897406578064,
                -1.5268738269805908
            ],
            "type" : "VEC3"
        },
        {
            "bufferView" : 5,
            "componentType" : 5126,
            "count" : 84,
            "type" : "VEC3"
        },
        {
            "bufferView" : 6,
            "componentType" : 5126,
            "count" : 84,
            "type" : "VEC2"
        },
        {
            "bufferView" : 7,
            "componentType" : 5123,
            "count" : 132,
            "type" : "SCALAR"
        },
        {
            "bufferView" : 8,
            "componentType" : 5126,
            "count" : 264,
            "max" : [
                0.10415714979171753,
                1.7285236120224,
                -1.3915420770645142
            ],
            "min" : [
                -0.10415714979171753,
                1.125734567642212,
                -1.7624244689941406
            ],
            "type" : "VEC3"
        },
        {
            "bufferView" : 9,
            "componentType" : 5126,
            "count" : 264,
            "type" : "VEC3"
        },
        {
            "bufferView" : 10,
            "componentType" : 5126,
            "count" : 264,
            "type" : "VEC2"
        },
        {
            "bufferView" : 11,
            "componentType" : 5123,
            "count" : 444,
            "type" : "SCALAR"
        },
        {
            "bufferView" : 12,
            "componentType" : 5126,
            "count" : 24,
            "max" : [
                3.7452304363250732,
                1,
                1
            ],
            "min" : [
                -3.7452304363250732,
                -1,
                -4.284135341644287
            ],
            "type" : "VEC3"
        },
        {
            "bufferView" : 13,
            "componentType" : 5126,
            "count" : 24,
            "type" : "VEC3"
        },
        {
            "bufferView" : 14,
            "componentType" : 5126,
            "count" : 24,
            "type" : "VEC2"
        },
        {
            "bufferView" : 15,
            "componentType" : 5123,
            "count" : 36,
            "type" : "SCALAR"
        },
        {
            "bufferView" : 16,
            "componentType" : 5126,
            "count" : 924,
            "max" : [
                0.5543496608734131,
                -0.24229131639003754,
                0.6612802743911743
            ],
            "min" : [
                -0.48223260045051575,
                -0.484150767326355,
                -0.7561712265014648
            ],
            "type" : "VEC3"
        },
        {
            "bufferView" : 17,
            "componentType" : 5126,
            "count" : 924,
            "type" : "VEC3"
        },
        {
            "bufferView" : 18,
            "componentType" : 5126,
            "count" : 924,
            "type" : "VEC2"
        },
        {
            "bufferView" : 19,
            "componentType" : 5123,
            "count" : 1560,
            "type" : "SCALAR"
        },
        {
            "bufferView" : 20,
            "componentType" : 5126,
            "count" : 529,
            "max" : [
                0.4557323455810547,
                0.9180123805999756,
                0.6203418374061584
            ],
            "min" : [
                -0.3449174165725708,
                -0.006562067195773125,
                -0.46907955408096313
            ],
            "type" : "VEC3"
        },
        {
            "bufferView" : 21,
            "componentType" : 5126,
            "count" : 529,
            "type" : "VEC3"
        },
        {
            "bufferView" : 22,
            "componentType" : 5126,
            "count" : 529,
            "type" : "VEC2"
        },
        {
            "bufferView" : 23,
            "componentType" : 5123,
            "count" : 831,
            "type" : "SCALAR"
        },
        {
            "bufferView" : 24,
            "componentType" : 5126,
            "count" : 772,
            "max" : [
                0.4557323455810547,
                2.030735492706299,
                0.7841166853904724
            ],
            "min" : [
                -0.3836154341697693,
                -0.17746251821517944,
                -0.6943447589874268
            ],
            "type" : "VEC3"
        },
        {
            "bufferView" : 25,
            "componentType" : 5126,
            "count" : 772,
            "type" : "VEC3"
        },
        {
            "bufferView" : 26,
            "componentType" : 5126,
            "count" : 772,
            "type" : "VEC2"
        },
        {
            "bufferView" : 27,
            "componentType" : 5123,
            "count" : 1500,
            "type" : "SCALAR"
        }
    ],
    "bufferViews" : [
        {
            "buffer" : 0,
            "byteLength" : 1128,
            "byteOffset" : 0
        },
        {
            "buffer" : 0,
            "byteLength" : 1128,
            "byteOffset" : 1128
        },
        {
            "buffer" : 0,
            "byteLength" : 752,
            "byteOffset" : 2256
        },
        {
            "buffer" : 0,
            "byteLength" : 288,
            "byteOffset" : 3008
        },
        {
            "buffer" : 0,
            "byteLength" : 1008,
            "byteOffset" : 3296
        },
        {
            "buffer" : 0,
            "byteLength" : 1008,
            "byteOffset" : 4304
        },
        {
            "buffer" : 0,
            "byteLength" : 672,
            "byteOffset" : 5312
        },
        {
            "buffer" : 0,
            "byteLength" : 264,
            "byteOffset" : 5984
        },
        {
            "buffer" : 0,
            "byteLength" : 3168,
            "byteOffset" : 6248
        },
        {
            "buffer" : 0,
            "byteLength" : 3168,
            "byteOffset" : 9416
        },
        {
            "buffer" : 0,
            "byteLength" : 2112,
            "byteOffset" : 12584
        },
        {
            "buffer" : 0,
            "byteLength" : 888,
            "byteOffset" : 14696
        },
        {
            "buffer" : 0,
            "byteLength" : 288,
            "byteOffset" : 15584
        },
        {
            "buffer" : 0,
            "byteLength" : 288,
            "byteOffset" : 15872
        },
        {
            "buffer" : 0,
            "byteLength" : 192,
            "byteOffset" : 16160
        },
        {
            "buffer" : 0,
            "byteLength" : 72,
            "byteOffset" : 16352
        },
        {
            "buffer" : 0,
            "byteLength" : 11088,
            "byteOffset" : 16424
        },
        {
            "buffer" : 0,
            "byteLength" : 11088,
            "byteOffset" : 27512
        },
        {
            "buffer" : 0,
            "byteLength" : 7392,
            "byteOffset" : 38600
        },
        {
            "buffer" : 0,
            "byteLength" : 3120,
            "byteOffset" : 45992
        },
        {
            "buffer" : 0,
            "byteLength" : 6348,
            "byteOffset" : 49112
        },
        {
            "buffer" : 0,
            "byteLength" : 6348,
            "byteOffset" : 55460
        },
        {
            "buffer" : 0,
            "byteLength" : 4232,
            "byteOffset" : 61808
        },
        {
            "buffer" : 0,
            "byteLength" : 1662,
            "byteOffset" : 66040
        },
        {
            "buffer" : 0,
            "byteLength" : 9264,
            "byteOffset" : 67704
        },
        {
            "buffer" : 0,
            "byteLength" : 9264,
            "byteOffset" : 76968
        },
        {
            "buffer" : 0,
            "byteLength" : 6176,
            "byteOffset" : 86232
        },
        {
            "buffer" : 0,
            "byteLength" : 3000,
            "byteOffset" : 92408
        }
    ],
    "buffers" : [
        {
            "byteLength" : 95408,
            "uri" : "data:application/octet-stream;base64,"
        }
    ]
}
