{
    "asset" : {
        "generator" : "Khronos glTF Blender I/O v1.5.17",
        "version" : "2.0"
    },
    "scene" : 0,
    "scenes" : [
        {
            "name" : "Scene",
            "nodes" : [
                2
            ]
        }
    ],
    "nodes" : [
        {
            "mesh" : 0,
            "name" : "Cube.139",
            "translation" : [
                -2.574679374694824,
                -1.869492530822754,
                0
            ]
        },
        {
            "mesh" : 1,
            "name" : "Cube.140",
            "translation" : [
                3.3469247817993164,
                -1.869492530822754,
                0
            ]
        },
        {
            "children" : [
                0,
                1
            ],
            "mesh" : 2,
            "name" : "Sphere.002",
            "scale" : [
                3.4889891147613525,
                3.4889891147613525,
                3.4889891147613525
            ],
            "translation" : [
                55.243770599365234,
                8.51917552947998,
                7.660192012786865
            ]
        }
    ],
    "materials" : [
        {
            "doubleSided" : true,
            "name" : "Material.005",
            "pbrMetallicRoughness" : {
                "baseColorFactor" : [
                    0.04867875203490257,
                    0.04867875203490257,
                    0.04867875203490257,
                    1
                ],
                "roughnessFactor" : 0.5
            }
        },
        {
            "doubleSided" : true,
            "name" : "Material.006",
            "pbrMetallicRoughness" : {
                "baseColorTexture" : {
                    "index" : 0
                },
                "metallicFactor" : 0,
                "roughnessFactor" : 0.5
            }
        }
    ],
    "meshes" : [
        {
            "name" : "Cube.138",
            "primitives" : [
                {
                    "attributes" : {
                        "POSITION" : 0,
                        "NORMAL" : 1,
                        "TEXCOORD_0" : 2
                    },
                    "indices" : 3,
                    "material" : 0
                }
            ]
        },
        {
            "name" : "Cube.139",
            "primitives" : [
                {
                    "attributes" : {
                        "POSITION" : 4,
                        "NORMAL" : 5,
                        "TEXCOORD_0" : 6
                    },
                    "indices" : 3,
                    "material" : 0
                }
            ]
        },
        {
            "name" : "Sphere.002",
            "primitives" : [
                {
                    "attributes" : {
                        "POSITION" : 7,
                        "NORMAL" : 8,
                        "TEXCOORD_0" : 9
                    },
                    "indices" : 10,
                    "material" : 1
                }
            ]
        }
    ],
    "textures" : [
        {
            "sampler" : 0,
            "source" : 0
        }
    ],
    "images" : [
        {
            "bufferView" : 11,
            "mimeType" : "image/png",
            "name" : "TankFlame"
        }
    ],
    "accessors" : [
        {
            "bufferView" : 0,
            "componentType" : 5126,
            "count" : 62,
            "max" : [
                1,
                1,
                1
            ],
            "min" : [
                -1,
                0.42281341552734375,
                -1
            ],
            "type" : "VEC3"
        },
        {
            "bufferView" : 1,
            "componentType" : 5126,
            "count" : 62,
            "type" : "VEC3"
        },
        {
            "bufferView" : 2,
            "componentType" : 5126,
            "count" : 62,
            "type" : "VEC2"
        },
        {
            "bufferView" : 3,
            "componentType" : 5123,
            "count" : 108,
            "type" : "SCALAR"
        },
        {
            "bufferView" : 4,
            "componentType" : 5126,
            "count" : 62,
            "max" : [
                1,
                1,
                1
            ],
            "min" : [
                -1,
                0.42281341552734375,
                -1
            ],
            "type" : "VEC3"
        },
        {
            "bufferView" : 5,
            "componentType" : 5126,
            "count" : 62,
            "type" : "VEC3"
        },
        {
            "bufferView" : 6,
            "componentType" : 5126,
            "count" : 62,
            "type" : "VEC2"
        },
        {
            "bufferView" : 7,
            "componentType" : 5126,
            "count" : 480,
            "max" : [
                4.88582181930542,
                1.000000238418579,
                0.9999997019767761
            ],
            "min" : [
                -3.909675121307373,
                -0.9999991655349731,
                -0.9999994039535522
            ],
            "type" : "VEC3"
        },
        {
            "bufferView" : 8,
            "componentType" : 5126,
            "count" : 480,
            "type" : "VEC3"
        },
        {
            "bufferView" : 9,
            "componentType" : 5126,
            "count" : 480,
            "type" : "VEC2"
        },
        {
            "bufferView" : 10,
            "componentType" : 5123,
            "count" : 672,
            "type" : "SCALAR"
        }
    ],
    "bufferViews" : [
        {
            "buffer" : 0,
            "byteLength" : 744,
            "byteOffset" : 0
        },
        {
            "buffer" : 0,
            "byteLength" : 744,
            "byteOffset" : 744
        },
        {
            "buffer" : 0,
            "byteLength" : 496,
            "byteOffset" : 1488
        },
        {
            "buffer" : 0,
            "byteLength" : 216,
            "byteOffset" : 1984
        },
        {
            "buffer" : 0,
            "byteLength" : 744,
            "byteOffset" : 2200
        },
        {
            "buffer" : 0,
            "byteLength" : 744,
            "byteOffset" : 2944
        },
        {
            "buffer" : 0,
            "byteLength" : 496,
            "byteOffset" : 3688
        },
        {
            "buffer" : 0,
            "byteLength" : 5760,
            "byteOffset" : 4184
        },
        {
            "buffer" : 0,
            "byteLength" : 5760,
            "byteOffset" : 9944
        },
        {
            "buffer" : 0,
            "byteLength" : 3840,
            "byteOffset" : 15704
        },
        {
            "buffer" : 0,
            "byteLength" : 1344,
            "byteOffset" : 19544
        },
        {
            "buffer" : 0,
            "byteLength" : 275369,
            "byteOffset" : 20888
        }
    ],
    "samplers" : [
        {
            "magFilter" : 9729,
            "minFilter" : 9987
        }
    ],
    "buffers" : [
        {
            "byteLength" : 296260,
            "uri" : "data:application/octet-stream;base64,"
        }
    ]
}
