{
    "asset" : {
        "generator" : "Khronos glTF Blender I/O v1.5.17",
        "version" : "2.0"
    },
    "scene" : 0,
    "scenes" : [
        {
            "name" : "Scene",
            "nodes" : [
                0
            ]
        }
    ],
    "nodes" : [
        {
            "mesh" : 0,
            "name" : "Cube.033",
            "translation" : [
                49.43019485473633,
                -2.175623893737793,
                0
            ]
        }
    ],
    "materials" : [
        {
            "doubleSided" : true,
            "name" : "Material.001",
            "pbrMetallicRoughness" : {
                "baseColorFactor" : [
                    0.14240239560604095,
                    0.14240239560604095,
                    0.14240239560604095,
                    1
                ],
                "metallicFactor" : 0
            }
        }
    ],
    "meshes" : [
        {
            "name" : "Cube.033",
            "primitives" : [
                {
                    "attributes" : {
                        "POSITION" : 0,
                        "NORMAL" : 1,
                        "TEXCOORD_0" : 2
                    },
                    "indices" : 3,
                    "material" : 0
                }
            ]
        }
    ],
    "accessors" : [
        {
            "bufferView" : 0,
            "componentType" : 5126,
            "count" : 188,
            "max" : [
                20.999988555908203,
                5.675623893737793,
                20
            ],
            "min" : [
                -21.0000057220459,
                -9.870323181152344,
                -20
            ],
            "type" : "VEC3"
        },
        {
            "bufferView" : 1,
            "componentType" : 5126,
            "count" : 188,
            "type" : "VEC3"
        },
        {
            "bufferView" : 2,
            "componentType" : 5126,
            "count" : 188,
            "type" : "VEC2"
        },
        {
            "bufferView" : 3,
            "componentType" : 5123,
            "count" : 312,
            "type" : "SCALAR"
        }
    ],
    "bufferViews" : [
        {
            "buffer" : 0,
            "byteLength" : 2256,
            "byteOffset" : 0
        },
        {
            "buffer" : 0,
            "byteLength" : 2256,
            "byteOffset" : 2256
        },
        {
            "buffer" : 0,
            "byteLength" : 1504,
            "byteOffset" : 4512
        },
        {
            "buffer" : 0,
            "byteLength" : 624,
            "byteOffset" : 6016
        }
    ],
    "buffers" : [
        {
            "byteLength" : 6640,
            "uri" : "data:application/octet-stream;base64,"
        }
    ]
}
