{
    "asset" : {
        "generator" : "Khronos glTF Blender I/O v1.5.17",
        "version" : "2.0"
    },
    "scene" : 0,
    "scenes" : [
        {
            "name" : "Scene",
            "nodes" : [
                0
            ]
        }
    ],
    "nodes" : [
        {
            "mesh" : 0,
            "name" : "Cube.138",
            "translation" : [
                49.111602783203125,
                4.426106929779053,
                0
            ]
        }
    ],
    "materials" : [
        {
            "doubleSided" : true,
            "name" : "Material.005",
            "pbrMetallicRoughness" : {
                "baseColorFactor" : [
                    0.04867875203490257,
                    0.04867875203490257,
                    0.04867875203490257,
                    1
                ],
                "roughnessFactor" : 0.5
            }
        }
    ],
    "meshes" : [
        {
            "name" : "Cube.104",
            "primitives" : [
                {
                    "attributes" : {
                        "POSITION" : 0,
                        "NORMAL" : 1,
                        "TEXCOORD_0" : 2
                    },
                    "indices" : 3,
                    "material" : 0
                }
            ]
        }
    ],
    "accessors" : [
        {
            "bufferView" : 0,
            "componentType" : 5126,
            "count" : 218,
            "max" : [
                4.048267841339111,
                13.39432430267334,
                1
            ],
            "min" : [
                -4.048267841339111,
                -1,
                -1
            ],
            "type" : "VEC3"
        },
        {
            "bufferView" : 1,
            "componentType" : 5126,
            "count" : 218,
            "type" : "VEC3"
        },
        {
            "bufferView" : 2,
            "componentType" : 5126,
            "count" : 218,
            "type" : "VEC2"
        },
        {
            "bufferView" : 3,
            "componentType" : 5123,
            "count" : 336,
            "type" : "SCALAR"
        }
    ],
    "bufferViews" : [
        {
            "buffer" : 0,
            "byteLength" : 2616,
            "byteOffset" : 0
        },
        {
            "buffer" : 0,
            "byteLength" : 2616,
            "byteOffset" : 2616
        },
        {
            "buffer" : 0,
            "byteLength" : 1744,
            "byteOffset" : 5232
        },
        {
            "buffer" : 0,
            "byteLength" : 672,
            "byteOffset" : 6976
        }
    ],
    "buffers" : [
        {
            "byteLength" : 7648,
            "uri" : "data:application/octet-stream;base64,"
        }
    ]
}
