{
    "asset" : {
        "generator" : "Khronos glTF Blender I/O v1.5.17",
        "version" : "2.0"
    },
    "scene" : 0,
    "scenes" : [
        {
            "name" : "Scene",
            "nodes" : [
                5
            ]
        }
    ],
    "nodes" : [
        {
            "mesh" : 0,
            "name" : "Cube",
            "scale" : [
                1.095226764678955,
                1.095226764678955,
                1.095226764678955
            ],
            "translation" : [
                6.717782974243164,
                0.1834646463394165,
                -0.1879526525735855
            ]
        },
        {
            "mesh" : 1,
            "name" : "Cylinder",
            "scale" : [
                1.575689435005188,
                1.575689435005188,
                0.8000056743621826
            ],
            "translation" : [
                6.771730422973633,
                -1.3380188941955566,
                -0.1937074214220047
            ]
        },
        {
            "mesh" : 2,
            "name" : "Cylinder.001",
            "scale" : [
                1.575689435005188,
                1.575689435005188,
                0.701896071434021
            ],
            "translation" : [
                -2.1477785110473633,
                -1.131156325340271,
                -0.1937074363231659
            ]
        },
        {
            "mesh" : 3,
            "name" : "Cylinder.003",
            "rotation" : [
                0,
                0,
                -0.7071066498756409,
                0.70710688829422
            ],
            "scale" : [
                0.21473629772663116,
                0.21473629772663116,
                0.21473629772663116
            ],
            "translation" : [
                -0.3868851661682129,
                0.1047918051481247,
                -0.1937066912651062
            ]
        },
        {
            "mesh" : 4,
            "name" : "Text",
            "rotation" : [
                0.7071068286895752,
                0,
                0,
                0.7071067094802856
            ],
            "scale" : [
                1.3688803911209106,
                1.3688803911209106,
                1.3688803911209106
            ],
            "translation" : [
                6.474418640136719,
                0.17499613761901855,
                2.1463632583618164
            ]
        },
        {
            "children" : [
                0,
                1,
                2,
                3,
                4
            ],
            "mesh" : 5,
            "name" : "Cube.001",
            "scale" : [
                0.6346428394317627,
                0.6346428394317627,
                0.6346428394317627
            ],
            "translation" : [
                -4.639214992523193,
                -0.16221000254154205,
                0.12293476611375809
            ]
        }
    ],
    "materials" : [
        {
            "doubleSided" : true,
            "name" : "truckbed",
            "pbrMetallicRoughness" : {
                "baseColorFactor" : [
                    0.800000011920929,
                    0.800000011920929,
                    0.800000011920929,
                    1
                ],
                "metallicFactor" : 0
            }
        },
        {
            "doubleSided" : true,
            "name" : "rims",
            "pbrMetallicRoughness" : {
                "baseColorFactor" : [
                    0.800000011920929,
                    0.800000011920929,
                    0.800000011920929,
                    1
                ],
                "roughnessFactor" : 0.03947368264198303
            }
        },
        {
            "doubleSided" : true,
            "name" : "tires",
            "pbrMetallicRoughness" : {
                "baseColorFactor" : [
                    0,
                    0,
                    0,
                    1
                ],
                "metallicFactor" : 0
            }
        },
        {
            "doubleSided" : true,
            "name" : "rims.001",
            "pbrMetallicRoughness" : {
                "baseColorFactor" : [
                    0.800000011920929,
                    0.800000011920929,
                    0.800000011920929,
                    1
                ],
                "roughnessFactor" : 0.03947368264198303
            }
        },
        {
            "doubleSided" : true,
            "name" : "tires.001",
            "pbrMetallicRoughness" : {
                "baseColorFactor" : [
                    0,
                    0,
                    0,
                    1
                ],
                "metallicFactor" : 0
            }
        },
        {
            "doubleSided" : true,
            "name" : "cab",
            "pbrMetallicRoughness" : {
                "baseColorFactor" : [
                    0.8000000715255737,
                    0.005786277819424868,
                    0.005362397059798241,
                    1
                ]
            }
        }
    ],
    "meshes" : [
        {
            "name" : "Cube.001",
            "primitives" : [
                {
                    "attributes" : {
                        "POSITION" : 0,
                        "NORMAL" : 1,
                        "TEXCOORD_0" : 2
                    },
                    "indices" : 3,
                    "material" : 0
                }
            ]
        },
        {
            "name" : "Cylinder",
            "primitives" : [
                {
                    "attributes" : {
                        "POSITION" : 4,
                        "NORMAL" : 5,
                        "TEXCOORD_0" : 6
                    },
                    "indices" : 7,
                    "material" : 1
                },
                {
                    "attributes" : {
                        "POSITION" : 8,
                        "NORMAL" : 9,
                        "TEXCOORD_0" : 10
                    },
                    "indices" : 11,
                    "material" : 2
                }
            ]
        },
        {
            "name" : "Cylinder.001",
            "primitives" : [
                {
                    "attributes" : {
                        "POSITION" : 12,
                        "NORMAL" : 13,
                        "TEXCOORD_0" : 14
                    },
                    "indices" : 15,
                    "material" : 3
                },
                {
                    "attributes" : {
                        "POSITION" : 16,
                        "NORMAL" : 17,
                        "TEXCOORD_0" : 18
                    },
                    "indices" : 19,
                    "material" : 4
                },
                {
                    "attributes" : {
                        "POSITION" : 20,
                        "NORMAL" : 21,
                        "TEXCOORD_0" : 22
                    },
                    "indices" : 23,
                    "material" : 5
                }
            ]
        },
        {
            "name" : "Cylinder.003",
            "primitives" : [
                {
                    "attributes" : {
                        "POSITION" : 24,
                        "NORMAL" : 25,
                        "TEXCOORD_0" : 26
                    },
                    "indices" : 27,
                    "material" : 1
                }
            ]
        },
        {
            "name" : "Seagull Transport",
            "primitives" : [
                {
                    "attributes" : {
                        "POSITION" : 28,
                        "NORMAL" : 29,
                        "TEXCOORD_0" : 30
                    },
                    "indices" : 31,
                    "material" : 2
                }
            ]
        },
        {
            "name" : "Cube.002",
            "primitives" : [
                {
                    "attributes" : {
                        "POSITION" : 32,
                        "NORMAL" : 33,
                        "TEXCOORD_0" : 34
                    },
                    "indices" : 35,
                    "material" : 2
                },
                {
                    "attributes" : {
                        "POSITION" : 36,
                        "NORMAL" : 37,
                        "TEXCOORD_0" : 38
                    },
                    "indices" : 39,
                    "material" : 5
                }
            ]
        }
    ],
    "accessors" : [
        {
            "bufferView" : 0,
            "componentType" : 5126,
            "count" : 24,
            "max" : [
                4.586676597595215,
                1,
                1
            ],
            "min" : [
                -4.586677074432373,
                -1,
                -1
            ],
            "type" : "VEC3"
        },
        {
            "bufferView" : 1,
            "componentType" : 5126,
            "count" : 24,
            "type" : "VEC3"
        },
        {
            "bufferView" : 2,
            "componentType" : 5126,
            "count" : 24,
            "type" : "VEC2"
        },
        {
            "bufferView" : 3,
            "componentType" : 5123,
            "count" : 36,
            "type" : "SCALAR"
        },
        {
            "bufferView" : 4,
            "componentType" : 5126,
            "count" : 128,
            "max" : [
                2.371711492538452,
                0.15691828727722168,
                1.058315634727478
            ],
            "min" : [
                -2.810105085372925,
                -0.1569194793701172,
                -1.0583146810531616
            ],
            "type" : "VEC3"
        },
        {
            "bufferView" : 5,
            "componentType" : 5126,
            "count" : 128,
            "type" : "VEC3"
        },
        {
            "bufferView" : 6,
            "componentType" : 5126,
            "count" : 128,
            "type" : "VEC2"
        },
        {
            "bufferView" : 7,
            "componentType" : 5123,
            "count" : 336,
            "type" : "SCALAR"
        },
        {
            "bufferView" : 8,
            "componentType" : 5126,
            "count" : 2028,
            "max" : [
                2.4876902103424072,
                0.2728967070579529,
                1.2107664346694946
            ],
            "min" : [
                -2.926083564758301,
                -0.27289795875549316,
                -1.2107654809951782
            ],
            "type" : "VEC3"
        },
        {
            "bufferView" : 9,
            "componentType" : 5126,
            "count" : 2028,
            "type" : "VEC3"
        },
        {
            "bufferView" : 10,
            "componentType" : 5126,
            "count" : 2028,
            "type" : "VEC2"
        },
        {
            "bufferView" : 11,
            "componentType" : 5123,
            "count" : 3384,
            "type" : "SCALAR"
        },
        {
            "bufferView" : 12,
            "componentType" : 5126,
            "count" : 32,
            "max" : [
                0.13752436637878418,
                0.03875210881233215,
                1.0583152770996094
            ],
            "min" : [
                -0.1763134002685547,
                -0.2750856578350067,
                -1.058314561843872
            ],
            "type" : "VEC3"
        },
        {
            "bufferView" : 13,
            "componentType" : 5126,
            "count" : 32,
            "type" : "VEC3"
        },
        {
            "bufferView" : 14,
            "componentType" : 5126,
            "count" : 32,
            "type" : "VEC2"
        },
        {
            "bufferView" : 15,
            "componentType" : 5123,
            "count" : 84,
            "type" : "SCALAR"
        },
        {
            "bufferView" : 16,
            "componentType" : 5126,
            "count" : 624,
            "max" : [
                0.2971682548522949,
                0.27594560384750366,
                1.3969138860702515
            ],
            "min" : [
                -0.3156733512878418,
                -0.3910641372203827,
                -1.3969131708145142
            ],
            "type" : "VEC3"
        },
        {
            "bufferView" : 17,
            "componentType" : 5126,
            "count" : 624,
            "type" : "VEC3"
        },
        {
            "bufferView" : 18,
            "componentType" : 5126,
            "count" : 624,
            "type" : "VEC2"
        },
        {
            "bufferView" : 19,
            "componentType" : 5123,
            "count" : 1032,
            "type" : "SCALAR"
        },
        {
            "bufferView" : 20,
            "componentType" : 5126,
            "count" : 223,
            "max" : [
                0.2971682548522949,
                0.27594560384750366,
                1.3969138860702515
            ],
            "min" : [
                -0.3156733512878418,
                -0.07338762283325195,
                -1.3969131708145142
            ],
            "type" : "VEC3"
        },
        {
            "bufferView" : 21,
            "componentType" : 5126,
            "count" : 223,
            "type" : "VEC3"
        },
        {
            "bufferView" : 22,
            "componentType" : 5126,
            "count" : 223,
            "type" : "VEC2"
        },
        {
            "bufferView" : 23,
            "componentType" : 5123,
            "count" : 372,
            "type" : "SCALAR"
        },
        {
            "bufferView" : 24,
            "componentType" : 5126,
            "count" : 880,
            "max" : [
                7.407841682434082,
                6.345096588134766,
                5.952492713928223
            ],
            "min" : [
                -5.992236137390137,
                -4.942043304443359,
                -5.952497482299805
            ],
            "type" : "VEC3"
        },
        {
            "bufferView" : 25,
            "componentType" : 5126,
            "count" : 880,
            "type" : "VEC3"
        },
        {
            "bufferView" : 26,
            "componentType" : 5126,
            "count" : 880,
            "type" : "VEC2"
        },
        {
            "bufferView" : 27,
            "componentType" : 5123,
            "count" : 1512,
            "type" : "SCALAR"
        },
        {
            "bufferView" : 28,
            "componentType" : 5126,
            "count" : 3417,
            "max" : [
                3.6486852169036865,
                -0.8971835970878601,
                0.46486353874206543
            ],
            "min" : [
                -3.4103152751922607,
                -0.8971837759017944,
                -0.45613694190979004
            ],
            "type" : "VEC3"
        },
        {
            "bufferView" : 29,
            "componentType" : 5126,
            "count" : 3417,
            "type" : "VEC3"
        },
        {
            "bufferView" : 30,
            "componentType" : 5126,
            "count" : 3417,
            "type" : "VEC2"
        },
        {
            "bufferView" : 31,
            "componentType" : 5123,
            "count" : 4236,
            "type" : "SCALAR"
        },
        {
            "bufferView" : 32,
            "componentType" : 5126,
            "count" : 52,
            "max" : [
                1.556004285812378,
                0.8044223189353943,
                0.8062930107116699
            ],
            "min" : [
                -2.413285493850708,
                -1.4403043985366821,
                -1.19370698928833
            ],
            "type" : "VEC3"
        },
        {
            "bufferView" : 33,
            "componentType" : 5126,
            "count" : 52,
            "type" : "VEC3"
        },
        {
            "bufferView" : 34,
            "componentType" : 5126,
            "count" : 52,
            "type" : "VEC2"
        },
        {
            "bufferView" : 35,
            "componentType" : 5123,
            "count" : 78,
            "type" : "SCALAR"
        },
        {
            "bufferView" : 36,
            "componentType" : 5126,
            "count" : 380,
            "max" : [
                1.59818696975708,
                1.1737416982650757,
                0.80855393409729
            ],
            "min" : [
                -2.454083204269409,
                -1.450647234916687,
                -1.19370698928833
            ],
            "type" : "VEC3"
        },
        {
            "bufferView" : 37,
            "componentType" : 5126,
            "count" : 380,
            "type" : "VEC3"
        },
        {
            "bufferView" : 38,
            "componentType" : 5126,
            "count" : 380,
            "type" : "VEC2"
        },
        {
            "bufferView" : 39,
            "componentType" : 5123,
            "count" : 594,
            "type" : "SCALAR"
        }
    ],
    "bufferViews" : [
        {
            "buffer" : 0,
            "byteLength" : 288,
            "byteOffset" : 0
        },
        {
            "buffer" : 0,
            "byteLength" : 288,
            "byteOffset" : 288
        },
        {
            "buffer" : 0,
            "byteLength" : 192,
            "byteOffset" : 576
        },
        {
            "buffer" : 0,
            "byteLength" : 72,
            "byteOffset" : 768
        },
        {
            "buffer" : 0,
            "byteLength" : 1536,
            "byteOffset" : 840
        },
        {
            "buffer" : 0,
            "byteLength" : 1536,
            "byteOffset" : 2376
        },
        {
            "buffer" : 0,
            "byteLength" : 1024,
            "byteOffset" : 3912
        },
        {
            "buffer" : 0,
            "byteLength" : 672,
            "byteOffset" : 4936
        },
        {
            "buffer" : 0,
            "byteLength" : 24336,
            "byteOffset" : 5608
        },
        {
            "buffer" : 0,
            "byteLength" : 24336,
            "byteOffset" : 29944
        },
        {
            "buffer" : 0,
            "byteLength" : 16224,
            "byteOffset" : 54280
        },
        {
            "buffer" : 0,
            "byteLength" : 6768,
            "byteOffset" : 70504
        },
        {
            "buffer" : 0,
            "byteLength" : 384,
            "byteOffset" : 77272
        },
        {
            "buffer" : 0,
            "byteLength" : 384,
            "byteOffset" : 77656
        },
        {
            "buffer" : 0,
            "byteLength" : 256,
            "byteOffset" : 78040
        },
        {
            "buffer" : 0,
            "byteLength" : 168,
            "byteOffset" : 78296
        },
        {
            "buffer" : 0,
            "byteLength" : 7488,
            "byteOffset" : 78464
        },
        {
            "buffer" : 0,
            "byteLength" : 7488,
            "byteOffset" : 85952
        },
        {
            "buffer" : 0,
            "byteLength" : 4992,
            "byteOffset" : 93440
        },
        {
            "buffer" : 0,
            "byteLength" : 2064,
            "byteOffset" : 98432
        },
        {
            "buffer" : 0,
            "byteLength" : 2676,
            "byteOffset" : 100496
        },
        {
            "buffer" : 0,
            "byteLength" : 2676,
            "byteOffset" : 103172
        },
        {
            "buffer" : 0,
            "byteLength" : 1784,
            "byteOffset" : 105848
        },
        {
            "buffer" : 0,
            "byteLength" : 744,
            "byteOffset" : 107632
        },
        {
            "buffer" : 0,
            "byteLength" : 10560,
            "byteOffset" : 108376
        },
        {
            "buffer" : 0,
            "byteLength" : 10560,
            "byteOffset" : 118936
        },
        {
            "buffer" : 0,
            "byteLength" : 7040,
            "byteOffset" : 129496
        },
        {
            "buffer" : 0,
            "byteLength" : 3024,
            "byteOffset" : 136536
        },
        {
            "buffer" : 0,
            "byteLength" : 41004,
            "byteOffset" : 139560
        },
        {
            "buffer" : 0,
            "byteLength" : 41004,
            "byteOffset" : 180564
        },
        {
            "buffer" : 0,
            "byteLength" : 27336,
            "byteOffset" : 221568
        },
        {
            "buffer" : 0,
            "byteLength" : 8472,
            "byteOffset" : 248904
        },
        {
            "buffer" : 0,
            "byteLength" : 624,
            "byteOffset" : 257376
        },
        {
            "buffer" : 0,
            "byteLength" : 624,
            "byteOffset" : 258000
        },
        {
            "buffer" : 0,
            "byteLength" : 416,
            "byteOffset" : 258624
        },
        {
            "buffer" : 0,
            "byteLength" : 156,
            "byteOffset" : 259040
        },
        {
            "buffer" : 0,
            "byteLength" : 4560,
            "byteOffset" : 259196
        },
        {
            "buffer" : 0,
            "byteLength" : 4560,
            "byteOffset" : 263756
        },
        {
            "buffer" : 0,
            "byteLength" : 3040,
            "byteOffset" : 268316
        },
        {
            "buffer" : 0,
            "byteLength" : 1188,
            "byteOffset" : 271356
        }
    ],
    "buffers" : [
        {
            "byteLength" : 272544,
            "uri" : "data:application/octet-stream;base64,"
        }
    ]
}
