{
    "asset" : {
        "generator" : "Khronos glTF Blender I/O v1.5.17",
        "version" : "2.0"
    },
    "scene" : 0,
    "scenes" : [
        {
            "name" : "Scene",
            "nodes" : [
                0,
                1
            ]
        }
    ],
    "nodes" : [
        {
            "mesh" : 0,
            "name" : "Cube.001",
            "scale" : [
                0.6477700471878052,
                1,
                1.5
            ]
        },
        {
            "mesh" : 1,
            "name" : "Cube.002"
        }
    ],
    "materials" : [
        {
            "doubleSided" : true,
            "name" : "Material",
            "pbrMetallicRoughness" : {
                "baseColorFactor" : [
                    0.8095700740814209,
                    0.8095700740814209,
                    0.8095700740814209,
                    1
                ]
            }
        },
        {
            "doubleSided" : true,
            "name" : "Material.002",
            "pbrMetallicRoughness" : {
                "baseColorFactor" : [
                    0.08353229612112045,
                    0.08353229612112045,
                    0.08353229612112045,
                    1
                ],
                "metallicFactor" : 0
            }
        }
    ],
    "meshes" : [
        {
            "name" : "Cube.001",
            "primitives" : [
                {
                    "attributes" : {
                        "POSITION" : 0,
                        "NORMAL" : 1,
                        "TEXCOORD_0" : 2
                    },
                    "indices" : 3,
                    "material" : 0
                }
            ]
        },
        {
            "name" : "Cube.002",
            "primitives" : [
                {
                    "attributes" : {
                        "POSITION" : 4,
                        "NORMAL" : 5,
                        "TEXCOORD_0" : 6
                    },
                    "indices" : 7,
                    "material" : 1
                }
            ]
        }
    ],
    "accessors" : [
        {
            "bufferView" : 0,
            "componentType" : 5126,
            "count" : 1466,
            "max" : [
                2.79349684715271,
                6.108203887939453,
                6.118240833282471
            ],
            "min" : [
                -2.79349684715271,
                -0.22139191627502441,
                -6.118240833282471
            ],
            "type" : "VEC3"
        },
        {
            "bufferView" : 1,
            "componentType" : 5126,
            "count" : 1466,
            "type" : "VEC3"
        },
        {
            "bufferView" : 2,
            "componentType" : 5126,
            "count" : 1466,
            "type" : "VEC2"
        },
        {
            "bufferView" : 3,
            "componentType" : 5123,
            "count" : 2208,
            "type" : "SCALAR"
        },
        {
            "bufferView" : 4,
            "componentType" : 5126,
            "count" : 102,
            "max" : [
                1.75,
                -0.06054508686065674,
                9.676382064819336
            ],
            "min" : [
                -1.75,
                -0.6005450487136841,
                -9.676382064819336
            ],
            "type" : "VEC3"
        },
        {
            "bufferView" : 5,
            "componentType" : 5126,
            "count" : 102,
            "type" : "VEC3"
        },
        {
            "bufferView" : 6,
            "componentType" : 5126,
            "count" : 102,
            "type" : "VEC2"
        },
        {
            "bufferView" : 7,
            "componentType" : 5123,
            "count" : 312,
            "type" : "SCALAR"
        }
    ],
    "bufferViews" : [
        {
            "buffer" : 0,
            "byteLength" : 17592,
            "byteOffset" : 0
        },
        {
            "buffer" : 0,
            "byteLength" : 17592,
            "byteOffset" : 17592
        },
        {
            "buffer" : 0,
            "byteLength" : 11728,
            "byteOffset" : 35184
        },
        {
            "buffer" : 0,
            "byteLength" : 4416,
            "byteOffset" : 46912
        },
        {
            "buffer" : 0,
            "byteLength" : 1224,
            "byteOffset" : 51328
        },
        {
            "buffer" : 0,
            "byteLength" : 1224,
            "byteOffset" : 52552
        },
        {
            "buffer" : 0,
            "byteLength" : 816,
            "byteOffset" : 53776
        },
        {
            "buffer" : 0,
            "byteLength" : 624,
            "byteOffset" : 54592
        }
    ],
    "buffers" : [
        {
            "byteLength" : 55216,
            "uri" : "data:application/octet-stream;base64,"
        }
    ]
}
