{
    "asset" : {
        "generator" : "Khronos glTF Blender I/O v1.5.17",
        "version" : "2.0"
    },
    "scene" : 0,
    "scenes" : [
        {
            "name" : "Scene",
            "nodes" : [
                0
            ]
        }
    ],
    "nodes" : [
        {
            "mesh" : 0,
            "name" : "Cube"
        }
    ],
    "materials" : [
        {
            "doubleSided" : true,
            "name" : "Material",
            "pbrMetallicRoughness" : {
                "baseColorFactor" : [
                    0.8095700740814209,
                    0.8095700740814209,
                    0.8095700740814209,
                    1
                ]
            }
        },
        {
            "doubleSided" : true,
            "name" : "Material.001",
            "pbrMetallicRoughness" : {
                "baseColorFactor" : [
                    0.8000000715255737,
                    0.13963957130908966,
                    0,
                    1
                ],
                "metallicFactor" : 0
            }
        }
    ],
    "meshes" : [
        {
            "name" : "Cube",
            "primitives" : [
                {
                    "attributes" : {
                        "POSITION" : 0,
                        "NORMAL" : 1,
                        "TEXCOORD_0" : 2
                    },
                    "indices" : 3,
                    "material" : 0
                },
                {
                    "attributes" : {
                        "POSITION" : 4,
                        "NORMAL" : 5,
                        "TEXCOORD_0" : 6
                    },
                    "indices" : 7,
                    "material" : 1
                }
            ]
        }
    ],
    "accessors" : [
        {
            "bufferView" : 0,
            "componentType" : 5126,
            "count" : 596,
            "max" : [
                0.5746054649353027,
                0.18136654794216156,
                0.5
            ],
            "min" : [
                -0.5746054649353027,
                0.03136654198169708,
                -4.5
            ],
            "type" : "VEC3"
        },
        {
            "bufferView" : 1,
            "componentType" : 5126,
            "count" : 596,
            "type" : "VEC3"
        },
        {
            "bufferView" : 2,
            "componentType" : 5126,
            "count" : 596,
            "type" : "VEC2"
        },
        {
            "bufferView" : 3,
            "componentType" : 5123,
            "count" : 1260,
            "type" : "SCALAR"
        },
        {
            "bufferView" : 4,
            "componentType" : 5126,
            "count" : 140,
            "max" : [
                0.4746054410934448,
                0.09849361330270767,
                0.13399851322174072
            ],
            "min" : [
                -0.4746054410934448,
                0.03136654198169708,
                -4.133998394012451
            ],
            "type" : "VEC3"
        },
        {
            "bufferView" : 5,
            "componentType" : 5126,
            "count" : 140,
            "type" : "VEC3"
        },
        {
            "bufferView" : 6,
            "componentType" : 5126,
            "count" : 140,
            "type" : "VEC2"
        },
        {
            "bufferView" : 7,
            "componentType" : 5123,
            "count" : 270,
            "type" : "SCALAR"
        }
    ],
    "bufferViews" : [
        {
            "buffer" : 0,
            "byteLength" : 7152,
            "byteOffset" : 0
        },
        {
            "buffer" : 0,
            "byteLength" : 7152,
            "byteOffset" : 7152
        },
        {
            "buffer" : 0,
            "byteLength" : 4768,
            "byteOffset" : 14304
        },
        {
            "buffer" : 0,
            "byteLength" : 2520,
            "byteOffset" : 19072
        },
        {
            "buffer" : 0,
            "byteLength" : 1680,
            "byteOffset" : 21592
        },
        {
            "buffer" : 0,
            "byteLength" : 1680,
            "byteOffset" : 23272
        },
        {
            "buffer" : 0,
            "byteLength" : 1120,
            "byteOffset" : 24952
        },
        {
            "buffer" : 0,
            "byteLength" : 540,
            "byteOffset" : 26072
        }
    ],
    "buffers" : [
        {
            "byteLength" : 26612,
            "uri" : "data:application/octet-stream;base64,"
        }
    ]
}
