{
    "asset" : {
        "generator" : "Khronos glTF Blender I/O v1.5.17",
        "version" : "2.0"
    },
    "scene" : 0,
    "scenes" : [
        {
            "name" : "Scene",
            "nodes" : [
                0,
                1,
                2,
                3,
                4
            ]
        }
    ],
    "nodes" : [
        {
            "mesh" : 0,
            "name" : "Cylinder.001",
            "rotation" : [
                0,
                0,
                0.00037384033203125,
                1
            ],
            "translation" : [
                -0.030980465933680534,
                -0.009363270364701748,
                0
            ]
        },
        {
            "mesh" : 1,
            "name" : "Cube"
        },
        {
            "mesh" : 2,
            "name" : "Cylinder.002",
            "rotation" : [
                0,
                0,
                0.00037384033203125,
                1
            ],
            "translation" : [
                0.7641712427139282,
                -0.00859024841338396,
                0
            ]
        },
        {
            "mesh" : 3,
            "name" : "Cylinder.003",
            "rotation" : [
                0,
                0,
                0.00037384033203125,
                1
            ],
            "translation" : [
                3.013178825378418,
                -0.007721352390944958,
                0
            ]
        },
        {
            "mesh" : 4,
            "name" : "Cylinder.004",
            "rotation" : [
                0,
                0,
                0.00037384033203125,
                1
            ],
            "translation" : [
                3.800116777420044,
                -0.006852086167782545,
                0
            ]
        }
    ],
    "animations" : [
        {
            "channels" : [
                {
                    "sampler" : 0,
                    "target" : {
                        "node" : 0,
                        "path" : "rotation"
                    }
                }
            ],
            "name" : "Cylinder.001Action.001",
            "samplers" : [
                {
                    "input" : 20,
                    "interpolation" : "LINEAR",
                    "output" : 21
                }
            ]
        },
        {
            "channels" : [
                {
                    "sampler" : 0,
                    "target" : {
                        "node" : 2,
                        "path" : "rotation"
                    }
                }
            ],
            "name" : "Cylinder.001Action.002",
            "samplers" : [
                {
                    "input" : 20,
                    "interpolation" : "LINEAR",
                    "output" : 22
                }
            ]
        },
        {
            "channels" : [
                {
                    "sampler" : 0,
                    "target" : {
                        "node" : 3,
                        "path" : "rotation"
                    }
                }
            ],
            "name" : "Cylinder.001Action.003",
            "samplers" : [
                {
                    "input" : 20,
                    "interpolation" : "LINEAR",
                    "output" : 23
                }
            ]
        },
        {
            "channels" : [
                {
                    "sampler" : 0,
                    "target" : {
                        "node" : 4,
                        "path" : "rotation"
                    }
                }
            ],
            "name" : "Cylinder.001Action.004",
            "samplers" : [
                {
                    "input" : 20,
                    "interpolation" : "LINEAR",
                    "output" : 24
                }
            ]
        }
    ],
    "materials" : [
        {
            "doubleSided" : true,
            "name" : "Material.001",
            "pbrMetallicRoughness" : {
                "baseColorFactor" : [
                    0,
                    0,
                    0,
                    1
                ],
                "metallicFactor" : 0,
                "roughnessFactor" : 0.5
            }
        },
        {
            "doubleSided" : true,
            "name" : "Material.002",
            "pbrMetallicRoughness" : {
                "baseColorFactor" : [
                    0.8000000715255737,
                    0.07839842885732651,
                    0.008256852626800537,
                    1
                ],
                "metallicFactor" : 0,
                "roughnessFactor" : 0.5
            }
        }
    ],
    "meshes" : [
        {
            "name" : "Cylinder.002",
            "primitives" : [
                {
                    "attributes" : {
                        "POSITION" : 0,
                        "NORMAL" : 1,
                        "TEXCOORD_0" : 2
                    },
                    "indices" : 3,
                    "material" : 0
                }
            ]
        },
        {
            "name" : "Cube.001",
            "primitives" : [
                {
                    "attributes" : {
                        "POSITION" : 4,
                        "NORMAL" : 5,
                        "TEXCOORD_0" : 6
                    },
                    "indices" : 7,
                    "material" : 1
                }
            ]
        },
        {
            "name" : "Cylinder.001",
            "primitives" : [
                {
                    "attributes" : {
                        "POSITION" : 8,
                        "NORMAL" : 9,
                        "TEXCOORD_0" : 10
                    },
                    "indices" : 11,
                    "material" : 0
                }
            ]
        },
        {
            "name" : "Cylinder.003",
            "primitives" : [
                {
                    "attributes" : {
                        "POSITION" : 12,
                        "NORMAL" : 13,
                        "TEXCOORD_0" : 14
                    },
                    "indices" : 15,
                    "material" : 0
                }
            ]
        },
        {
            "name" : "Cylinder.004",
            "primitives" : [
                {
                    "attributes" : {
                        "POSITION" : 16,
                        "NORMAL" : 17,
                        "TEXCOORD_0" : 18
                    },
                    "indices" : 19,
                    "material" : 0
                }
            ]
        }
    ],
    "accessors" : [
        {
            "bufferView" : 0,
            "componentType" : 5126,
            "count" : 1688,
            "max" : [
                0.36273109912872314,
                0.36271101236343384,
                0.48130032420158386
            ],
            "min" : [
                -0.36280500888824463,
                -0.3628251552581787,
                -0.48130133748054504
            ],
            "type" : "VEC3"
        },
        {
            "bufferView" : 1,
            "componentType" : 5126,
            "count" : 1688,
            "type" : "VEC3"
        },
        {
            "bufferView" : 2,
            "componentType" : 5126,
            "count" : 1688,
            "type" : "VEC2"
        },
        {
            "bufferView" : 3,
            "componentType" : 5123,
            "count" : 2550,
            "type" : "SCALAR"
        },
        {
            "bufferView" : 4,
            "componentType" : 5126,
            "count" : 112,
            "max" : [
                4.445491790771484,
                0.5783681869506836,
                0.5295339226722717
            ],
            "min" : [
                -0.5929111242294312,
                0.12549740076065063,
                -0.5295336246490479
            ],
            "type" : "VEC3"
        },
        {
            "bufferView" : 5,
            "componentType" : 5126,
            "count" : 112,
            "type" : "VEC3"
        },
        {
            "bufferView" : 6,
            "componentType" : 5126,
            "count" : 112,
            "type" : "VEC2"
        },
        {
            "bufferView" : 7,
            "componentType" : 5123,
            "count" : 180,
            "type" : "SCALAR"
        },
        {
            "bufferView" : 8,
            "componentType" : 5126,
            "count" : 1688,
            "max" : [
                0.36273086071014404,
                0.3627110421657562,
                0.48130032420158386
            ],
            "min" : [
                -0.3628053069114685,
                -0.3628251254558563,
                -0.48130133748054504
            ],
            "type" : "VEC3"
        },
        {
            "bufferView" : 9,
            "componentType" : 5126,
            "count" : 1688,
            "type" : "VEC3"
        },
        {
            "bufferView" : 10,
            "componentType" : 5126,
            "count" : 1688,
            "type" : "VEC2"
        },
        {
            "bufferView" : 11,
            "componentType" : 5123,
            "count" : 2550,
            "type" : "SCALAR"
        },
        {
            "bufferView" : 12,
            "componentType" : 5126,
            "count" : 1688,
            "max" : [
                0.3627328872680664,
                0.3627110421657562,
                0.48130032420158386
            ],
            "min" : [
                -0.36280322074890137,
                -0.3628251254558563,
                -0.48130133748054504
            ],
            "type" : "VEC3"
        },
        {
            "bufferView" : 13,
            "componentType" : 5126,
            "count" : 1688,
            "type" : "VEC3"
        },
        {
            "bufferView" : 14,
            "componentType" : 5126,
            "count" : 1688,
            "type" : "VEC2"
        },
        {
            "bufferView" : 15,
            "componentType" : 5123,
            "count" : 2550,
            "type" : "SCALAR"
        },
        {
            "bufferView" : 16,
            "componentType" : 5126,
            "count" : 1688,
            "max" : [
                0.3627283573150635,
                0.3627110421657562,
                0.48130032420158386
            ],
            "min" : [
                -0.3628079891204834,
                -0.3628251254558563,
                -0.48130133748054504
            ],
            "type" : "VEC3"
        },
        {
            "bufferView" : 17,
            "componentType" : 5126,
            "count" : 1688,
            "type" : "VEC3"
        },
        {
            "bufferView" : 18,
            "componentType" : 5126,
            "count" : 1688,
            "type" : "VEC2"
        },
        {
            "bufferView" : 19,
            "componentType" : 5123,
            "count" : 2550,
            "type" : "SCALAR"
        },
        {
            "bufferView" : 20,
            "componentType" : 5126,
            "count" : 60,
            "max" : [
                2.5
            ],
            "min" : [
                0.041666666666666664
            ],
            "type" : "SCALAR"
        },
        {
            "bufferView" : 21,
            "componentType" : 5126,
            "count" : 60,
            "type" : "VEC4"
        },
        {
            "bufferView" : 22,
            "componentType" : 5126,
            "count" : 60,
            "type" : "VEC4"
        },
        {
            "bufferView" : 23,
            "componentType" : 5126,
            "count" : 60,
            "type" : "VEC4"
        },
        {
            "bufferView" : 24,
            "componentType" : 5126,
            "count" : 60,
            "type" : "VEC4"
        }
    ],
    "bufferViews" : [
        {
            "buffer" : 0,
            "byteLength" : 20256,
            "byteOffset" : 0
        },
        {
            "buffer" : 0,
            "byteLength" : 20256,
            "byteOffset" : 20256
        },
        {
            "buffer" : 0,
            "byteLength" : 13504,
            "byteOffset" : 40512
        },
        {
            "buffer" : 0,
            "byteLength" : 5100,
            "byteOffset" : 54016
        },
        {
            "buffer" : 0,
            "byteLength" : 1344,
            "byteOffset" : 59116
        },
        {
            "buffer" : 0,
            "byteLength" : 1344,
            "byteOffset" : 60460
        },
        {
            "buffer" : 0,
            "byteLength" : 896,
            "byteOffset" : 61804
        },
        {
            "buffer" : 0,
            "byteLength" : 360,
            "byteOffset" : 62700
        },
        {
            "buffer" : 0,
            "byteLength" : 20256,
            "byteOffset" : 63060
        },
        {
            "buffer" : 0,
            "byteLength" : 20256,
            "byteOffset" : 83316
        },
        {
            "buffer" : 0,
            "byteLength" : 13504,
            "byteOffset" : 103572
        },
        {
            "buffer" : 0,
            "byteLength" : 5100,
            "byteOffset" : 117076
        },
        {
            "buffer" : 0,
            "byteLength" : 20256,
            "byteOffset" : 122176
        },
        {
            "buffer" : 0,
            "byteLength" : 20256,
            "byteOffset" : 142432
        },
        {
            "buffer" : 0,
            "byteLength" : 13504,
            "byteOffset" : 162688
        },
        {
            "buffer" : 0,
            "byteLength" : 5100,
            "byteOffset" : 176192
        },
        {
            "buffer" : 0,
            "byteLength" : 20256,
            "byteOffset" : 181292
        },
        {
            "buffer" : 0,
            "byteLength" : 20256,
            "byteOffset" : 201548
        },
        {
            "buffer" : 0,
            "byteLength" : 13504,
            "byteOffset" : 221804
        },
        {
            "buffer" : 0,
            "byteLength" : 5100,
            "byteOffset" : 235308
        },
        {
            "buffer" : 0,
            "byteLength" : 240,
            "byteOffset" : 240408
        },
        {
            "buffer" : 0,
            "byteLength" : 960,
            "byteOffset" : 240648
        },
        {
            "buffer" : 0,
            "byteLength" : 960,
            "byteOffset" : 241608
        },
        {
            "buffer" : 0,
            "byteLength" : 960,
            "byteOffset" : 242568
        },
        {
            "buffer" : 0,
            "byteLength" : 960,
            "byteOffset" : 243528
        }
    ],
    "buffers" : [
        {
            "byteLength" : 244488,
            "uri" : "data:application/octet-stream;base64,"
        }
    ]
}
