{
    "asset" : {
        "generator" : "Khronos glTF Blender I/O v1.5.17",
        "version" : "2.0"
    },
    "scene" : 0,
    "scenes" : [
        {
            "name" : "Scene",
            "nodes" : [
                0,
                1,
                2,
                3,
                4
            ]
        }
    ],
    "nodes" : [
        {
            "mesh" : 0,
            "name" : "Sphere"
        },
        {
            "mesh" : 1,
            "name" : "Torus"
        },
        {
            "mesh" : 2,
            "name" : "Cone"
        },
        {
            "mesh" : 3,
            "name" : "Sphere.001"
        },
        {
            "mesh" : 4,
            "name" : "Cylinder.001"
        }
    ],
    "materials" : [
        {
            "doubleSided" : true,
            "name" : "Leather_material",
            "pbrMetallicRoughness" : {
                "baseColorFactor" : [
                    0.476993590593338,
                    0.07418305426836014,
                    0.03321177139878273,
                    1
                ],
                "metallicFactor" : 0,
                "roughnessFactor" : 0.5
            }
        },
        {
            "doubleSided" : true,
            "name" : "Fur",
            "pbrMetallicRoughness" : {
                "metallicFactor" : 0,
                "roughnessFactor" : 0.5
            }
        },
        {
            "doubleSided" : true,
            "name" : "Rod",
            "pbrMetallicRoughness" : {
                "baseColorFactor" : [
                    0.01691647619009018,
                    0.01691647619009018,
                    0.01691647619009018,
                    1
                ],
                "metallicFactor" : 0
            }
        }
    ],
    "meshes" : [
        {
            "name" : "Sphere",
            "primitives" : [
                {
                    "attributes" : {
                        "POSITION" : 0,
                        "NORMAL" : 1,
                        "TEXCOORD_0" : 2
                    },
                    "indices" : 3,
                    "material" : 0
                }
            ]
        },
        {
            "name" : "Torus",
            "primitives" : [
                {
                    "attributes" : {
                        "POSITION" : 4,
                        "NORMAL" : 5,
                        "TEXCOORD_0" : 6
                    },
                    "indices" : 7,
                    "material" : 1
                }
            ]
        },
        {
            "name" : "Cone",
            "primitives" : [
                {
                    "attributes" : {
                        "POSITION" : 8,
                        "NORMAL" : 9,
                        "TEXCOORD_0" : 10
                    },
                    "indices" : 11,
                    "material" : 0
                }
            ]
        },
        {
            "name" : "Sphere.001",
            "primitives" : [
                {
                    "attributes" : {
                        "POSITION" : 12,
                        "NORMAL" : 13,
                        "TEXCOORD_0" : 14
                    },
                    "indices" : 15,
                    "material" : 0
                }
            ]
        },
        {
            "name" : "Cylinder.001",
            "primitives" : [
                {
                    "attributes" : {
                        "POSITION" : 16,
                        "NORMAL" : 17,
                        "TEXCOORD_0" : 18
                    },
                    "indices" : 19,
                    "material" : 2
                }
            ]
        }
    ],
    "accessors" : [
        {
            "bufferView" : 0,
            "componentType" : 5126,
            "count" : 1984,
            "max" : [
                0.4154362976551056,
                1.5989243984222412,
                1.1337189674377441
            ],
            "min" : [
                -0.4123649597167969,
                0.7263760566711426,
                0.37200790643692017
            ],
            "type" : "VEC3"
        },
        {
            "bufferView" : 1,
            "componentType" : 5126,
            "count" : 1984,
            "type" : "VEC3"
        },
        {
            "bufferView" : 2,
            "componentType" : 5126,
            "count" : 1984,
            "type" : "VEC2"
        },
        {
            "bufferView" : 3,
            "componentType" : 5123,
            "count" : 2880,
            "type" : "SCALAR"
        },
        {
            "bufferView" : 4,
            "componentType" : 5126,
            "count" : 576,
            "max" : [
                0.5725921988487244,
                1.667961835861206,
                1.2161093950271606
            ],
            "min" : [
                -0.5688074231147766,
                0.580909252166748,
                0.714611291885376
            ],
            "type" : "VEC3"
        },
        {
            "bufferView" : 5,
            "componentType" : 5126,
            "count" : 576,
            "type" : "VEC3"
        },
        {
            "bufferView" : 6,
            "componentType" : 5126,
            "count" : 576,
            "type" : "VEC2"
        },
        {
            "bufferView" : 7,
            "componentType" : 5123,
            "count" : 864,
            "type" : "SCALAR"
        },
        {
            "bufferView" : 8,
            "componentType" : 5126,
            "count" : 128,
            "max" : [
                0.4139150381088257,
                1.128458023071289,
                0.8719662427902222
            ],
            "min" : [
                -0.4139150381088257,
                0.23223945498466492,
                0.06253984570503235
            ],
            "type" : "VEC3"
        },
        {
            "bufferView" : 9,
            "componentType" : 5126,
            "count" : 128,
            "type" : "VEC3"
        },
        {
            "bufferView" : 10,
            "componentType" : 5126,
            "count" : 128,
            "type" : "VEC2"
        },
        {
            "bufferView" : 11,
            "componentType" : 5123,
            "count" : 186,
            "type" : "SCALAR"
        },
        {
            "bufferView" : 12,
            "componentType" : 5126,
            "count" : 480,
            "max" : [
                0.45485830307006836,
                0.5872141122817993,
                0.9283714294433594
            ],
            "min" : [
                -0.45485827326774597,
                -0.028830736875534058,
                0.007057517766952515
            ],
            "type" : "VEC3"
        },
        {
            "bufferView" : 13,
            "componentType" : 5126,
            "count" : 480,
            "type" : "VEC3"
        },
        {
            "bufferView" : 14,
            "componentType" : 5126,
            "count" : 480,
            "type" : "VEC2"
        },
        {
            "bufferView" : 15,
            "componentType" : 5123,
            "count" : 672,
            "type" : "SCALAR"
        },
        {
            "bufferView" : 16,
            "componentType" : 5126,
            "count" : 283,
            "max" : [
                0.09052320569753647,
                1.3975074291229248,
                3.3455286026000977
            ],
            "min" : [
                0.011117987334728241,
                -2.091500997543335,
                1.0481483936309814
            ],
            "type" : "VEC3"
        },
        {
            "bufferView" : 17,
            "componentType" : 5126,
            "count" : 283,
            "type" : "VEC3"
        },
        {
            "bufferView" : 18,
            "componentType" : 5126,
            "count" : 283,
            "type" : "VEC2"
        },
        {
            "bufferView" : 19,
            "componentType" : 5123,
            "count" : 612,
            "type" : "SCALAR"
        }
    ],
    "bufferViews" : [
        {
            "buffer" : 0,
            "byteLength" : 23808,
            "byteOffset" : 0
        },
        {
            "buffer" : 0,
            "byteLength" : 23808,
            "byteOffset" : 23808
        },
        {
            "buffer" : 0,
            "byteLength" : 15872,
            "byteOffset" : 47616
        },
        {
            "buffer" : 0,
            "byteLength" : 5760,
            "byteOffset" : 63488
        },
        {
            "buffer" : 0,
            "byteLength" : 6912,
            "byteOffset" : 69248
        },
        {
            "buffer" : 0,
            "byteLength" : 6912,
            "byteOffset" : 76160
        },
        {
            "buffer" : 0,
            "byteLength" : 4608,
            "byteOffset" : 83072
        },
        {
            "buffer" : 0,
            "byteLength" : 1728,
            "byteOffset" : 87680
        },
        {
            "buffer" : 0,
            "byteLength" : 1536,
            "byteOffset" : 89408
        },
        {
            "buffer" : 0,
            "byteLength" : 1536,
            "byteOffset" : 90944
        },
        {
            "buffer" : 0,
            "byteLength" : 1024,
            "byteOffset" : 92480
        },
        {
            "buffer" : 0,
            "byteLength" : 372,
            "byteOffset" : 93504
        },
        {
            "buffer" : 0,
            "byteLength" : 5760,
            "byteOffset" : 93876
        },
        {
            "buffer" : 0,
            "byteLength" : 5760,
            "byteOffset" : 99636
        },
        {
            "buffer" : 0,
            "byteLength" : 3840,
            "byteOffset" : 105396
        },
        {
            "buffer" : 0,
            "byteLength" : 1344,
            "byteOffset" : 109236
        },
        {
            "buffer" : 0,
            "byteLength" : 3396,
            "byteOffset" : 110580
        },
        {
            "buffer" : 0,
            "byteLength" : 3396,
            "byteOffset" : 113976
        },
        {
            "buffer" : 0,
            "byteLength" : 2264,
            "byteOffset" : 117372
        },
        {
            "buffer" : 0,
            "byteLength" : 1224,
            "byteOffset" : 119636
        }
    ],
    "buffers" : [
        {
            "byteLength" : 120860,
            "uri" : "data:application/octet-stream;base64,"
        }
    ]
}
