{
    "asset" : {
        "generator" : "Khronos glTF Blender I/O v1.5.17",
        "version" : "2.0"
    },
    "scene" : 0,
    "scenes" : [
        {
            "name" : "Scene",
            "nodes" : [
                0,
                1
            ]
        }
    ],
    "nodes" : [
        {
            "mesh" : 0,
            "name" : "Sphere"
        },
        {
            "mesh" : 1,
            "name" : "Cylinder"
        }
    ],
    "meshes" : [
        {
            "name" : "Sphere",
            "primitives" : [
                {
                    "attributes" : {
                        "POSITION" : 0,
                        "NORMAL" : 1,
                        "TEXCOORD_0" : 2
                    },
                    "indices" : 3
                }
            ]
        },
        {
            "name" : "Cylinder",
            "primitives" : [
                {
                    "attributes" : {
                        "POSITION" : 4,
                        "NORMAL" : 5,
                        "TEXCOORD_0" : 6
                    },
                    "indices" : 7
                }
            ]
        }
    ],
    "accessors" : [
        {
            "bufferView" : 0,
            "componentType" : 5126,
            "count" : 1226,
            "max" : [
                22.029556274414062,
                20.884172439575195,
                22.029558181762695
            ],
            "min" : [
                -22.0295467376709,
                1.663184775679838e-06,
                -22.029550552368164
            ],
            "type" : "VEC3"
        },
        {
            "bufferView" : 1,
            "componentType" : 5126,
            "count" : 1226,
            "type" : "VEC3"
        },
        {
            "bufferView" : 2,
            "componentType" : 5126,
            "count" : 1226,
            "type" : "VEC2"
        },
        {
            "bufferView" : 3,
            "componentType" : 5123,
            "count" : 1920,
            "type" : "SCALAR"
        },
        {
            "bufferView" : 4,
            "componentType" : 5126,
            "count" : 478,
            "max" : [
                5.4384636878967285,
                10.450591087341309,
                29.562278747558594
            ],
            "min" : [
                -5.017413139343262,
                -0.038523826748132706,
                16.10666275024414
            ],
            "type" : "VEC3"
        },
        {
            "bufferView" : 5,
            "componentType" : 5126,
            "count" : 478,
            "type" : "VEC3"
        },
        {
            "bufferView" : 6,
            "componentType" : 5126,
            "count" : 478,
            "type" : "VEC2"
        },
        {
            "bufferView" : 7,
            "componentType" : 5123,
            "count" : 720,
            "type" : "SCALAR"
        }
    ],
    "bufferViews" : [
        {
            "buffer" : 0,
            "byteLength" : 14712,
            "byteOffset" : 0
        },
        {
            "buffer" : 0,
            "byteLength" : 14712,
            "byteOffset" : 14712
        },
        {
            "buffer" : 0,
            "byteLength" : 9808,
            "byteOffset" : 29424
        },
        {
            "buffer" : 0,
            "byteLength" : 3840,
            "byteOffset" : 39232
        },
        {
            "buffer" : 0,
            "byteLength" : 5736,
            "byteOffset" : 43072
        },
        {
            "buffer" : 0,
            "byteLength" : 5736,
            "byteOffset" : 48808
        },
        {
            "buffer" : 0,
            "byteLength" : 3824,
            "byteOffset" : 54544
        },
        {
            "buffer" : 0,
            "byteLength" : 1440,
            "byteOffset" : 58368
        }
    ],
    "buffers" : [
        {
            "byteLength" : 59808,
            "uri" : "data:application/octet-stream;base64,"
        }
    ]
}
