{
    "asset" : {
        "generator" : "Khronos glTF Blender I/O v1.5.17",
        "version" : "2.0"
    },
    "scene" : 0,
    "scenes" : [
        {
            "name" : "Scene",
            "nodes" : [
                0
            ]
        }
    ],
    "nodes" : [
        {
            "mesh" : 0,
            "name" : "Landscape.001",
            "scale" : [
                8.939356803894043,
                8.939356803894043,
                8.939356803894043
            ]
        }
    ],
    "meshes" : [
        {
            "name" : "Landscape.001",
            "primitives" : [
                {
                    "attributes" : {
                        "POSITION" : 0,
                        "NORMAL" : 1
                    },
                    "indices" : 2
                }
            ]
        }
    ],
    "accessors" : [
        {
            "bufferView" : 0,
            "componentType" : 5126,
            "count" : 16892,
            "max" : [
                2.8706674575805664,
                0.0736149325966835,
                2.870337724685669
            ],
            "min" : [
                -2.8703408241271973,
                -0.25165772438049316,
                -2.8703346252441406
            ],
            "type" : "VEC3"
        },
        {
            "bufferView" : 1,
            "componentType" : 5126,
            "count" : 16892,
            "type" : "VEC3"
        },
        {
            "bufferView" : 2,
            "componentType" : 5123,
            "count" : 99822,
            "type" : "SCALAR"
        }
    ],
    "bufferViews" : [
        {
            "buffer" : 0,
            "byteLength" : 202704,
            "byteOffset" : 0
        },
        {
            "buffer" : 0,
            "byteLength" : 202704,
            "byteOffset" : 202704
        },
        {
            "buffer" : 0,
            "byteLength" : 199644,
            "byteOffset" : 405408
        }
    ],
    "buffers" : [
        {
            "byteLength" : 605052,
            "uri" : "data:application/octet-stream;base64,"
        }
    ]
}
