{
    "asset" : {
        "generator" : "Khronos glTF Blender I/O v1.5.17",
        "version" : "2.0"
    },
    "scene" : 0,
    "scenes" : [
        {
            "name" : "Scene",
            "nodes" : [
                0
            ]
        }
    ],
    "nodes" : [
        {
            "mesh" : 0,
            "name" : "Cube"
        }
    ],
    "materials" : [
        {
            "doubleSided" : true,
            "name" : "Material",
            "pbrMetallicRoughness" : {
                "baseColorFactor" : [
                    0.800000011920929,
                    0.800000011920929,
                    0.800000011920929,
                    1
                ],
                "metallicFactor" : 0,
                "roughnessFactor" : 0.4000000059604645
            }
        }
    ],
    "meshes" : [
        {
            "name" : "Cube",
            "primitives" : [
                {
                    "attributes" : {
                        "POSITION" : 0,
                        "NORMAL" : 1,
                        "TEXCOORD_0" : 2
                    },
                    "indices" : 3,
                    "material" : 0
                }
            ]
        }
    ],
    "accessors" : [
        {
            "bufferView" : 0,
            "componentType" : 5126,
            "count" : 1652,
            "max" : [
                9.592564582824707,
                2.5869510173797607,
                15.95992374420166
            ],
            "min" : [
                -8.547144889831543,
                -2.3334953784942627,
                -16.08553123474121
            ],
            "type" : "VEC3"
        },
        {
            "bufferView" : 1,
            "componentType" : 5126,
            "count" : 1652,
            "type" : "VEC3"
        },
        {
            "bufferView" : 2,
            "componentType" : 5126,
            "count" : 1652,
            "type" : "VEC2"
        },
        {
            "bufferView" : 3,
            "componentType" : 5123,
            "count" : 2478,
            "type" : "SCALAR"
        }
    ],
    "bufferViews" : [
        {
            "buffer" : 0,
            "byteLength" : 19824,
            "byteOffset" : 0
        },
        {
            "buffer" : 0,
            "byteLength" : 19824,
            "byteOffset" : 19824
        },
        {
            "buffer" : 0,
            "byteLength" : 13216,
            "byteOffset" : 39648
        },
        {
            "buffer" : 0,
            "byteLength" : 4956,
            "byteOffset" : 52864
        }
    ],
    "buffers" : [
        {
            "byteLength" : 57820,
            "uri" : "data:application/octet-stream;base64,"
        }
    ]
}
